<svg width="419" height="260" viewBox="0 0 419 260" fill="none" xmlns="http://www.w3.org/2000/svg">
<rect x="101" y="27" width="216" height="206" fill="#0D122C"/>
<path d="M180.88 134.92V133.528L187.68 130.936L180.88 128.344V126.936L189.04 130.088V131.768L180.88 134.92ZM200.036 135V126.824H200.98L201.14 127.736C201.3 127.384 201.524 127.117 201.812 126.936C202.11 126.755 202.43 126.664 202.772 126.664C203.134 126.664 203.454 126.76 203.732 126.952C204.02 127.144 204.233 127.427 204.372 127.8C204.564 127.427 204.798 127.144 205.076 126.952C205.364 126.76 205.716 126.664 206.132 126.664C206.718 126.664 207.166 126.851 207.476 127.224C207.796 127.597 207.956 128.131 207.956 128.824V135H206.58V129.112C206.58 128.312 206.281 127.912 205.684 127.912C205.396 127.912 205.156 128.024 204.964 128.248C204.772 128.472 204.676 128.76 204.676 129.112V135H203.316V129.112C203.316 128.312 203.006 127.912 202.388 127.912C202.1 127.912 201.86 128.024 201.668 128.248C201.486 128.472 201.396 128.76 201.396 129.112V135H200.036ZM213.581 135.16C212.728 135.16 212.019 134.989 211.453 134.648C210.899 134.307 210.483 133.827 210.205 133.208C209.939 132.589 209.805 131.88 209.805 131.08V130.744C209.805 129.912 209.96 129.192 210.269 128.584C210.579 127.976 211.021 127.507 211.597 127.176C212.173 126.835 212.856 126.664 213.645 126.664C214.381 126.664 215.011 126.813 215.533 127.112C216.067 127.411 216.477 127.816 216.765 128.328C217.064 128.84 217.213 129.427 217.213 130.088V131.176H211.469V131.448C211.469 132.291 211.672 132.931 212.077 133.368C212.483 133.805 212.995 134.024 213.613 134.024C214.296 134.024 214.813 133.859 215.165 133.528C215.528 133.197 215.709 132.685 215.709 131.992H217.213C217.213 132.643 217.059 133.208 216.749 133.688C216.451 134.157 216.029 134.52 215.485 134.776C214.952 135.032 214.317 135.16 213.581 135.16ZM211.485 130.136H215.645V129.896C215.645 129.491 215.56 129.133 215.389 128.824C215.229 128.504 214.995 128.253 214.685 128.072C214.376 127.891 214.019 127.8 213.613 127.8C213.155 127.8 212.765 127.912 212.445 128.136C212.136 128.36 211.896 128.648 211.725 129C211.565 129.341 211.485 129.693 211.485 130.056V130.136ZM236.689 126.952V128.344L229.889 130.936L236.689 133.528V134.936L228.529 131.784V130.104L236.689 126.952Z" fill="#B1D0FF"/>
<path d="M130 0C159.853 0 187.354 10.063 209.3 26.9809C178.465 50.7515 158.6 88.0555 158.6 130C158.6 171.944 178.465 209.248 209.3 233.018C187.354 249.936 159.853 260 130 260C58.203 260 0 201.797 0 130C0 58.203 58.203 0 130 0Z" fill="#B1D0FF"/>
<path d="M288.167 0C258.314 0 230.812 10.063 208.867 26.9809C239.701 50.7515 259.567 88.0555 259.567 130C259.567 171.944 239.701 209.248 208.867 233.018C230.812 249.936 258.314 260 288.167 260C359.964 260 418.167 201.797 418.167 130C418.167 58.203 359.964 0 288.167 0Z" fill="#B1D0FF"/>
<path d="M46.144 135.16C45.5573 135.16 45.0187 135.021 44.528 134.744C44.0373 134.456 43.6427 134.013 43.344 133.416C43.056 132.808 42.912 132.019 42.912 131.048V130.872C42.912 129.965 43.056 129.197 43.344 128.568C43.632 127.939 44.0213 127.464 44.512 127.144C45.0133 126.824 45.568 126.664 46.176 126.664C46.72 126.664 47.1947 126.765 47.6 126.968C48.0053 127.16 48.32 127.427 48.544 127.768V123.48H50.144V135H48.848L48.672 133.832C48.4373 134.259 48.1067 134.589 47.68 134.824C47.2533 135.048 46.7413 135.16 46.144 135.16ZM46.528 134.008C47.1147 134.008 47.5947 133.795 47.968 133.368C48.352 132.931 48.544 132.259 48.544 131.352V130.456C48.544 129.56 48.352 128.893 47.968 128.456C47.5947 128.019 47.1147 127.8 46.528 127.8C45.9413 127.8 45.456 128.024 45.072 128.472C44.6987 128.909 44.512 129.571 44.512 130.456V131.336C44.512 132.243 44.6987 132.915 45.072 133.352C45.456 133.789 45.9413 134.008 46.528 134.008ZM56.3938 135.16C55.5404 135.16 54.8311 134.989 54.2658 134.648C53.7111 134.307 53.2951 133.827 53.0178 133.208C52.7511 132.589 52.6178 131.88 52.6178 131.08V130.744C52.6178 129.912 52.7724 129.192 53.0818 128.584C53.3911 127.976 53.8338 127.507 54.4098 127.176C54.9858 126.835 55.6684 126.664 56.4578 126.664C57.1938 126.664 57.8231 126.813 58.3458 127.112C58.8791 127.411 59.2898 127.816 59.5778 128.328C59.8764 128.84 60.0258 129.427 60.0258 130.088V131.176H54.2818V131.448C54.2818 132.291 54.4844 132.931 54.8898 133.368C55.2951 133.805 55.8071 134.024 56.4258 134.024C57.1084 134.024 57.6258 133.859 57.9778 133.528C58.3404 133.197 58.5218 132.685 58.5218 131.992H60.0258C60.0258 132.643 59.8711 133.208 59.5618 133.688C59.2631 134.157 58.8418 134.52 58.2978 134.776C57.7644 135.032 57.1298 135.16 56.3938 135.16ZM54.2978 130.136H58.4578V129.896C58.4578 129.491 58.3724 129.133 58.2018 128.824C58.0418 128.504 57.8071 128.253 57.4978 128.072C57.1884 127.891 56.8311 127.8 56.4258 127.8C55.9671 127.8 55.5778 127.912 55.2578 128.136C54.9484 128.36 54.7084 128.648 54.5378 129C54.3778 129.341 54.2978 129.693 54.2978 130.056V130.136ZM65.1235 135L61.9395 126.824H63.6515L66.0355 133.096H66.0835L68.4675 126.824H70.0355L66.8195 135H65.1235ZM75.5813 135.16C74.7279 135.16 74.0186 134.989 73.4533 134.648C72.8986 134.307 72.4826 133.827 72.2053 133.208C71.9386 132.589 71.8053 131.88 71.8053 131.08V130.744C71.8053 129.912 71.9599 129.192 72.2693 128.584C72.5786 127.976 73.0213 127.507 73.5973 127.176C74.1733 126.835 74.8559 126.664 75.6453 126.664C76.3813 126.664 77.0106 126.813 77.5333 127.112C78.0666 127.411 78.4773 127.816 78.7653 128.328C79.0639 128.84 79.2133 129.427 79.2133 130.088V131.176H73.4693V131.448C73.4693 132.291 73.6719 132.931 74.0773 133.368C74.4826 133.805 74.9946 134.024 75.6133 134.024C76.2959 134.024 76.8133 133.859 77.1653 133.528C77.5279 133.197 77.7093 132.685 77.7093 131.992H79.2133C79.2133 132.643 79.0586 133.208 78.7493 133.688C78.4506 134.157 78.0293 134.52 77.4853 134.776C76.9519 135.032 76.3173 135.16 75.5813 135.16ZM73.4853 130.136H77.6453V129.896C77.6453 129.491 77.5599 129.133 77.3893 128.824C77.2293 128.504 76.9946 128.253 76.6853 128.072C76.3759 127.891 76.0186 127.8 75.6133 127.8C75.1546 127.8 74.7653 127.912 74.4453 128.136C74.1359 128.36 73.8959 128.648 73.7253 129C73.5653 129.341 73.4853 129.693 73.4853 130.056V130.136ZM84.503 135V124.712H81.559V123.464H86.087V135H84.503ZM81.559 135V133.768H88.871V135H81.559ZM94.7688 135.16C93.9794 135.16 93.3021 134.984 92.7368 134.632C92.1714 134.28 91.7394 133.795 91.4408 133.176C91.1421 132.547 90.9928 131.837 90.9928 131.048V130.776C90.9928 129.965 91.1421 129.251 91.4408 128.632C91.7394 128.013 92.1714 127.533 92.7368 127.192C93.3021 126.84 93.9741 126.664 94.7528 126.664C95.5528 126.664 96.2354 126.84 96.8008 127.192C97.3661 127.544 97.7981 128.029 98.0968 128.648C98.3954 129.267 98.5448 129.976 98.5448 130.776V131.048C98.5448 131.859 98.3954 132.573 98.0968 133.192C97.7981 133.811 97.3661 134.296 96.8008 134.648C96.2354 134.989 95.5581 135.16 94.7688 135.16ZM94.7688 134.024C95.3874 134.024 95.8941 133.8 96.2888 133.352C96.6834 132.893 96.8808 132.259 96.8808 131.448V130.376C96.8808 129.565 96.6834 128.936 96.2888 128.488C95.8941 128.029 95.3874 127.8 94.7688 127.8C94.1608 127.8 93.6541 128.029 93.2488 128.488C92.8541 128.936 92.6568 129.565 92.6568 130.376V131.448C92.6568 132.259 92.8541 132.893 93.2488 133.352C93.6541 133.8 94.1608 134.024 94.7688 134.024ZM101.019 137.896V126.824H102.315L102.491 127.992C102.725 127.555 103.056 127.224 103.483 127C103.92 126.776 104.437 126.664 105.035 126.664C105.653 126.664 106.203 126.813 106.683 127.112C107.173 127.4 107.557 127.848 107.835 128.456C108.123 129.064 108.267 129.853 108.267 130.824V131.032C108.267 131.928 108.117 132.685 107.819 133.304C107.52 133.912 107.12 134.376 106.619 134.696C106.128 135.005 105.579 135.16 104.971 135.16C104.427 135.16 103.952 135.059 103.547 134.856C103.152 134.653 102.843 134.403 102.619 134.104V137.896H101.019ZM104.651 134.008C105.237 134.008 105.717 133.795 106.091 133.368C106.464 132.941 106.651 132.28 106.651 131.384V130.456C106.651 129.805 106.56 129.288 106.379 128.904C106.197 128.52 105.952 128.243 105.643 128.072C105.344 127.891 105.013 127.8 104.651 127.8C104.299 127.8 103.968 127.885 103.659 128.056C103.349 128.216 103.099 128.493 102.907 128.888C102.715 129.272 102.619 129.795 102.619 130.456V131.384C102.619 132.28 102.811 132.941 103.195 133.368C103.579 133.795 104.064 134.008 104.651 134.008ZM113.956 135.16C113.103 135.16 112.394 134.989 111.828 134.648C111.274 134.307 110.858 133.827 110.58 133.208C110.314 132.589 110.18 131.88 110.18 131.08V130.744C110.18 129.912 110.335 129.192 110.644 128.584C110.954 127.976 111.396 127.507 111.972 127.176C112.548 126.835 113.231 126.664 114.02 126.664C114.756 126.664 115.386 126.813 115.908 127.112C116.442 127.411 116.852 127.816 117.14 128.328C117.439 128.84 117.588 129.427 117.588 130.088V131.176H111.844V131.448C111.844 132.291 112.047 132.931 112.452 133.368C112.858 133.805 113.37 134.024 113.988 134.024C114.671 134.024 115.188 133.859 115.54 133.528C115.903 133.197 116.084 132.685 116.084 131.992H117.588C117.588 132.643 117.434 133.208 117.124 133.688C116.826 134.157 116.404 134.52 115.86 134.776C115.327 135.032 114.692 135.16 113.956 135.16ZM111.86 130.136H116.02V129.896C116.02 129.491 115.935 129.133 115.764 128.824C115.604 128.504 115.37 128.253 115.06 128.072C114.751 127.891 114.394 127.8 113.988 127.8C113.53 127.8 113.14 127.912 112.82 128.136C112.511 128.36 112.271 128.648 112.1 129C111.94 129.341 111.86 129.693 111.86 130.056V130.136ZM121.55 135V128.072H119.486V126.824H122.846L122.926 128.024C123.118 127.597 123.411 127.267 123.806 127.032C124.211 126.787 124.675 126.664 125.198 126.664C125.998 126.664 126.611 126.904 127.038 127.384C127.475 127.853 127.694 128.456 127.694 129.192C127.694 129.309 127.689 129.421 127.678 129.528C127.678 129.624 127.667 129.741 127.646 129.88H126.286V129.544C126.286 129.256 126.227 128.989 126.11 128.744C126.003 128.499 125.833 128.301 125.598 128.152C125.374 127.992 125.081 127.912 124.718 127.912C124.366 127.912 124.067 128.013 123.822 128.216C123.587 128.419 123.411 128.675 123.294 128.984C123.177 129.293 123.118 129.619 123.118 129.96V135H121.55ZM119.406 135V133.768H126.782V135H119.406Z" fill="#0D122C"/>
<path d="M293.144 135.16C292.557 135.16 292.019 135.021 291.528 134.744C291.037 134.456 290.643 134.013 290.344 133.416C290.056 132.808 289.912 132.019 289.912 131.048V130.872C289.912 129.965 290.056 129.197 290.344 128.568C290.632 127.939 291.021 127.464 291.512 127.144C292.013 126.824 292.568 126.664 293.176 126.664C293.72 126.664 294.195 126.765 294.6 126.968C295.005 127.16 295.32 127.427 295.544 127.768V123.48H297.144V135H295.848L295.672 133.832C295.437 134.259 295.107 134.589 294.68 134.824C294.253 135.048 293.741 135.16 293.144 135.16ZM293.528 134.008C294.115 134.008 294.595 133.795 294.968 133.368C295.352 132.931 295.544 132.259 295.544 131.352V130.456C295.544 129.56 295.352 128.893 294.968 128.456C294.595 128.019 294.115 127.8 293.528 127.8C292.941 127.8 292.456 128.024 292.072 128.472C291.699 128.909 291.512 129.571 291.512 130.456V131.336C291.512 132.243 291.699 132.915 292.072 133.352C292.456 133.789 292.941 134.008 293.528 134.008ZM303.394 135.16C302.54 135.16 301.831 134.989 301.266 134.648C300.711 134.307 300.295 133.827 300.018 133.208C299.751 132.589 299.618 131.88 299.618 131.08V130.744C299.618 129.912 299.772 129.192 300.082 128.584C300.391 127.976 300.834 127.507 301.41 127.176C301.986 126.835 302.668 126.664 303.458 126.664C304.194 126.664 304.823 126.813 305.346 127.112C305.879 127.411 306.29 127.816 306.578 128.328C306.876 128.84 307.026 129.427 307.026 130.088V131.176H301.282V131.448C301.282 132.291 301.484 132.931 301.89 133.368C302.295 133.805 302.807 134.024 303.426 134.024C304.108 134.024 304.626 133.859 304.978 133.528C305.34 133.197 305.522 132.685 305.522 131.992H307.026C307.026 132.643 306.871 133.208 306.562 133.688C306.263 134.157 305.842 134.52 305.298 134.776C304.764 135.032 304.13 135.16 303.394 135.16ZM301.298 130.136H305.458V129.896C305.458 129.491 305.372 129.133 305.202 128.824C305.042 128.504 304.807 128.253 304.498 128.072C304.188 127.891 303.831 127.8 303.426 127.8C302.967 127.8 302.578 127.912 302.258 128.136C301.948 128.36 301.708 128.648 301.538 129C301.378 129.341 301.298 129.693 301.298 130.056V130.136ZM312.876 135.16C312.204 135.16 311.606 135.069 311.084 134.888C310.572 134.696 310.166 134.424 309.868 134.072C309.58 133.709 309.436 133.283 309.436 132.792C309.436 132.76 309.436 132.712 309.436 132.648C309.436 132.584 309.441 132.515 309.452 132.44H310.828V132.6C310.828 133.048 311.02 133.4 311.404 133.656C311.798 133.901 312.358 134.024 313.084 134.024C313.734 134.024 314.225 133.912 314.556 133.688C314.897 133.453 315.068 133.149 315.068 132.776C315.068 132.531 314.998 132.328 314.86 132.168C314.721 132.008 314.47 131.869 314.108 131.752C313.756 131.635 313.244 131.523 312.572 131.416C311.857 131.288 311.281 131.133 310.844 130.952C310.406 130.76 310.092 130.515 309.9 130.216C309.708 129.907 309.612 129.523 309.612 129.064C309.612 128.531 309.756 128.088 310.044 127.736C310.332 127.384 310.732 127.117 311.244 126.936C311.766 126.755 312.374 126.664 313.068 126.664C313.676 126.664 314.22 126.755 314.7 126.936C315.19 127.117 315.58 127.373 315.868 127.704C316.156 128.024 316.3 128.413 316.3 128.872C316.3 128.904 316.3 128.941 316.3 128.984C316.3 129.027 316.289 129.085 316.267 129.16H314.876C314.876 128.776 314.785 128.488 314.604 128.296C314.433 128.093 314.198 127.96 313.9 127.896C313.612 127.821 313.292 127.784 312.94 127.784C311.702 127.784 311.084 128.168 311.084 128.936C311.084 129.139 311.148 129.309 311.276 129.448C311.404 129.576 311.633 129.693 311.964 129.8C312.305 129.907 312.79 130.019 313.42 130.136C314.198 130.275 314.812 130.445 315.26 130.648C315.718 130.851 316.049 131.112 316.252 131.432C316.454 131.741 316.556 132.147 316.556 132.648C316.556 133.213 316.406 133.683 316.108 134.056C315.82 134.429 315.398 134.707 314.844 134.888C314.3 135.069 313.644 135.16 312.876 135.16ZM322.229 135V128.072H319.301V126.824H323.829V135H322.229ZM319.301 135V133.768H326.597V135H319.301ZM322.165 125.144V123.608H323.669V125.144H322.165ZM330.335 138.008C329.652 138.008 329.124 137.821 328.751 137.448C328.378 137.075 328.191 136.616 328.191 136.072C328.191 135.667 328.303 135.304 328.527 134.984C328.751 134.664 329.039 134.429 329.391 134.28C329.156 134.131 328.97 133.933 328.831 133.688C328.703 133.443 328.639 133.181 328.639 132.904C328.639 132.531 328.762 132.195 329.007 131.896C329.252 131.597 329.588 131.405 330.015 131.32C329.631 131.096 329.343 130.808 329.151 130.456C328.959 130.104 328.863 129.699 328.863 129.24C328.863 128.44 329.146 127.811 329.711 127.352C330.287 126.893 331.135 126.664 332.255 126.664C332.916 126.664 333.45 126.755 333.855 126.936C334.282 126.819 334.602 126.621 334.815 126.344C335.039 126.056 335.167 125.725 335.199 125.352H336.495C336.495 125.885 336.34 126.339 336.031 126.712C335.732 127.075 335.338 127.309 334.847 127.416V127.448C335.103 127.651 335.295 127.912 335.423 128.232C335.562 128.541 335.631 128.877 335.631 129.24C335.631 130.029 335.359 130.659 334.815 131.128C334.282 131.597 333.508 131.832 332.495 131.832H331.183C330.863 131.832 330.607 131.907 330.415 132.056C330.234 132.205 330.143 132.413 330.143 132.68C330.143 132.947 330.234 133.155 330.415 133.304C330.596 133.443 330.847 133.512 331.167 133.512H334.063C334.82 133.512 335.412 133.709 335.839 134.104C336.276 134.488 336.495 135 336.495 135.64C336.495 136.333 336.276 136.899 335.839 137.336C335.412 137.784 334.804 138.008 334.015 138.008H330.335ZM330.783 136.952H333.807C334.202 136.952 334.5 136.845 334.703 136.632C334.906 136.429 335.007 136.173 335.007 135.864C335.007 135.565 334.906 135.315 334.703 135.112C334.511 134.909 334.212 134.808 333.807 134.808H330.783C330.399 134.808 330.106 134.909 329.903 135.112C329.7 135.325 329.599 135.581 329.599 135.88C329.599 136.168 329.7 136.419 329.903 136.632C330.106 136.845 330.399 136.952 330.783 136.952ZM332.271 130.808C332.858 130.808 333.316 130.675 333.647 130.408C333.978 130.131 334.143 129.747 334.143 129.256C334.143 128.755 333.978 128.371 333.647 128.104C333.316 127.837 332.858 127.704 332.271 127.704C331.695 127.704 331.236 127.837 330.895 128.104C330.564 128.371 330.399 128.755 330.399 129.256C330.399 129.747 330.564 130.131 330.895 130.408C331.236 130.675 331.695 130.808 332.271 130.808ZM338.345 135V126.824H339.641L339.801 127.992C340.046 127.533 340.393 127.197 340.841 126.984C341.289 126.771 341.785 126.664 342.329 126.664C343.225 126.664 343.939 126.915 344.473 127.416C345.006 127.917 345.273 128.659 345.273 129.64V135H343.673V130.104C343.673 129.336 343.513 128.776 343.193 128.424C342.883 128.072 342.446 127.896 341.881 127.896C341.486 127.896 341.145 127.997 340.857 128.2C340.569 128.392 340.345 128.664 340.185 129.016C340.025 129.357 339.945 129.752 339.945 130.2V135H338.345ZM351.363 135.16C350.509 135.16 349.8 134.989 349.235 134.648C348.68 134.307 348.264 133.827 347.987 133.208C347.72 132.589 347.587 131.88 347.587 131.08V130.744C347.587 129.912 347.741 129.192 348.051 128.584C348.36 127.976 348.803 127.507 349.379 127.176C349.955 126.835 350.637 126.664 351.427 126.664C352.163 126.664 352.792 126.813 353.315 127.112C353.848 127.411 354.259 127.816 354.547 128.328C354.845 128.84 354.995 129.427 354.995 130.088V131.176H349.251V131.448C349.251 132.291 349.453 132.931 349.859 133.368C350.264 133.805 350.776 134.024 351.395 134.024C352.077 134.024 352.595 133.859 352.947 133.528C353.309 133.197 353.491 132.685 353.491 131.992H354.995C354.995 132.643 354.84 133.208 354.531 133.688C354.232 134.157 353.811 134.52 353.267 134.776C352.733 135.032 352.099 135.16 351.363 135.16ZM349.267 130.136H353.427V129.896C353.427 129.491 353.341 129.133 353.171 128.824C353.011 128.504 352.776 128.253 352.467 128.072C352.157 127.891 351.8 127.8 351.395 127.8C350.936 127.8 350.547 127.912 350.227 128.136C349.917 128.36 349.677 128.648 349.507 129C349.347 129.341 349.267 129.693 349.267 130.056V130.136ZM358.956 135V128.072H356.892V126.824H360.252L360.332 128.024C360.524 127.597 360.818 127.267 361.212 127.032C361.618 126.787 362.082 126.664 362.604 126.664C363.404 126.664 364.018 126.904 364.444 127.384C364.882 127.853 365.1 128.456 365.1 129.192C365.1 129.309 365.095 129.421 365.084 129.528C365.084 129.624 365.074 129.741 365.052 129.88H363.692V129.544C363.692 129.256 363.634 128.989 363.516 128.744C363.41 128.499 363.239 128.301 363.004 128.152C362.78 127.992 362.487 127.912 362.124 127.912C361.772 127.912 361.474 128.013 361.228 128.216C360.994 128.419 360.818 128.675 360.7 128.984C360.583 129.293 360.524 129.619 360.524 129.96V135H358.956ZM356.812 135V133.768H364.188V135H356.812Z" fill="#0D122C"/>
</svg>
